<?xml version="1.0" standalone="no"?>
<!DOCTYPE svg PUBLIC "-//W3C//DTD SVG 20010904//EN"
 "http://www.w3.org/TR/2001/REC-SVG-20010904/DTD/svg10.dtd">
<svg version="1.0" xmlns="http://www.w3.org/2000/svg"
 width="260.000000pt" height="260.000000pt" viewBox="0 0 260.000000 260.000000"
 preserveAspectRatio="xMidYMid meet">
<metadata>
Created by potrace 1.14, written by Peter Selinger 2001-2017
</metadata>
<g transform="translate(0.000000,260.000000) scale(0.100000,-0.100000)"
fill="#000000" stroke="none">
<path d="M35 2570 c-10 -16 5 -50 21 -50 8 0 14 -4 14 -10 0 -5 5 -10 11 -10
8 0 8 4 0 14 -6 7 -9 21 -5 30 5 13 22 16 90 16 49 0 84 -4 84 -10 0 -5 13
-10 28 -10 28 0 82 -43 70 -56 -3 -3 5 -16 17 -28 13 -13 26 -39 30 -57 3 -19
5 -522 3 -1119 l-3 -1085 -28 -47 c-31 -53 -61 -78 -94 -78 -16 0 -23 -6 -23
-20 0 -20 7 -20 795 -20 l795 0 -2 242 c-3 215 -5 243 -19 246 -13 2 -18 -8
-24 -45 -17 -117 -89 -228 -179 -276 -40 -22 -49 -22 -498 -25 l-458 -3 0 888
c1 741 3 885 14 871 19 -26 28 -22 22 10 -6 23 1 35 48 81 30 30 53 58 50 63
-4 5 -26 -11 -50 -36 -24 -25 -48 -46 -54 -46 -5 0 -10 -4 -10 -10 0 -5 -4
-10 -10 -10 -6 0 -10 65 -10 176 0 162 1 175 18 170 14 -5 17 1 18 29 0 23 -4
35 -13 35 -17 0 -16 12 0 53 23 55 66 97 97 97 16 0 31 6 33 13 4 7 8 3 12
-10 9 -27 20 -29 33 -6 9 16 11 16 27 0 18 -19 35 -14 35 9 0 12 28 14 166 14
157 0 166 -1 171 -20 3 -11 10 -20 15 -20 5 0 12 9 15 20 7 25 12 25 29 3 13
-17 15 -17 25 0 9 15 28 17 173 17 140 0 165 -2 170 -16 3 -8 14 -14 23 -11
10 2 33 -7 51 -21 18 -13 36 -21 40 -17 4 4 -1 13 -12 20 -11 8 -16 21 -13 30
5 13 32 15 171 15 145 0 165 -2 168 -16 5 -25 75 -25 82 -1 4 15 20 17 164 17
138 0 161 -2 166 -16 4 -9 1 -23 -5 -30 -8 -10 -8 -14 0 -14 6 0 11 5 11 10 0
6 6 10 14 10 16 0 31 34 21 50 -9 14 -2521 14 -2530 0z"/>
<path d="M806 2511 c-4 -7 -5 -15 -2 -18 9 -9 19 4 14 18 -4 11 -6 11 -12 0z"/>
<path d="M925 2511 c-3 -5 -1 -12 5 -16 5 -3 10 1 10 9 0 18 -6 21 -15 7z"/>
<path d="M1660 2504 c0 -8 5 -12 10 -9 6 4 8 11 5 16 -9 14 -15 11 -15 -7z"/>
<path d="M1230 2499 c0 -5 5 -7 10 -4 6 3 10 8 10 11 0 2 -4 4 -10 4 -5 0 -10
-5 -10 -11z"/>
<path d="M100 2480 c0 -5 5 -10 11 -10 5 0 7 5 4 10 -3 6 -8 10 -11 10 -2 0
-4 -4 -4 -10z"/>
<path d="M2056 2481 c-4 -7 -5 -15 -2 -18 9 -9 19 4 14 18 -4 11 -6 11 -12 0z"/>
<path d="M2485 2480 c-3 -5 -1 -10 4 -10 6 0 11 5 11 10 0 6 -2 10 -4 10 -3 0
-8 -4 -11 -10z"/>
<path d="M770 2470 c0 -5 5 -10 10 -10 6 0 10 5 10 10 0 6 -4 10 -10 10 -5 0
-10 -4 -10 -10z"/>
<path d="M955 2470 c3 -5 8 -10 11 -10 2 0 4 5 4 10 0 6 -5 10 -11 10 -5 0 -7
-4 -4 -10z"/>
<path d="M1200 2469 c0 -5 5 -7 10 -4 6 3 10 8 10 11 0 2 -4 4 -10 4 -5 0 -10
-5 -10 -11z"/>
<path d="M1385 2470 c3 -5 8 -10 11 -10 2 0 4 5 4 10 0 6 -5 10 -11 10 -5 0
-7 -4 -4 -10z"/>
<path d="M1630 2469 c0 -5 5 -7 10 -4 6 3 10 8 10 11 0 2 -4 4 -10 4 -5 0 -10
-5 -10 -11z"/>
<path d="M1810 2470 c0 -5 5 -10 10 -10 6 0 10 5 10 10 0 6 -4 10 -10 10 -5 0
-10 -4 -10 -10z"/>
<path d="M130 2450 c0 -5 5 -10 11 -10 5 0 7 5 4 10 -3 6 -8 10 -11 10 -2 0
-4 -4 -4 -10z"/>
<path d="M987 2453 c-4 -3 9 -21 27 -39 19 -19 37 -43 41 -54 3 -11 13 -20 21
-20 8 0 35 -20 60 -45 24 -25 47 -45 49 -45 14 0 75 -74 75 -92 0 -13 -32 -51
-87 -104 -48 -46 -90 -84 -94 -84 -4 0 -10 7 -13 16 -3 8 -11 12 -17 8 -9 -5
-7 -11 6 -20 17 -13 17 -15 2 -32 -20 -21 -11 -38 10 -20 11 9 19 9 33 0 22
-14 32 -5 20 18 -7 14 8 34 79 104 55 53 96 86 110 86 16 0 21 6 21 25 0 19
-5 25 -21 25 -22 0 -22 0 -122 98 -56 55 -67 71 -62 91 5 21 3 23 -20 17 -20
-5 -33 1 -68 34 -24 22 -47 37 -50 33z"/>
<path d="M2026 2451 c-4 -7 -5 -15 -2 -18 9 -9 19 4 14 18 -4 11 -6 11 -12 0z"/>
<path d="M2455 2450 c-3 -5 -1 -10 4 -10 6 0 11 5 11 10 0 6 -2 10 -4 10 -3 0
-8 -4 -11 -10z"/>
<path d="M310 2440 c0 -5 5 -10 10 -10 6 0 10 5 10 10 0 6 -4 10 -10 10 -5 0
-10 -4 -10 -10z"/>
<path d="M740 2439 c0 -5 5 -7 10 -4 6 3 10 8 10 11 0 2 -4 4 -10 4 -5 0 -10
-5 -10 -11z"/>
<path d="M1170 2439 c0 -5 5 -7 10 -4 6 3 10 8 10 11 0 2 -4 4 -10 4 -5 0 -10
-5 -10 -11z"/>
<path d="M1415 2440 c3 -5 8 -10 11 -10 2 0 4 5 4 10 0 6 -5 10 -11 10 -5 0
-7 -4 -4 -10z"/>
<path d="M1588 2443 c-1 -5 -18 -20 -36 -35 -23 -20 -40 -26 -56 -22 -20 5
-22 2 -22 -30 1 -41 0 -40 26 -24 16 11 22 9 34 -7 8 -11 18 -17 22 -13 4 4 1
14 -5 22 -16 19 -1 48 43 88 22 20 26 28 14 28 -9 0 -18 -3 -20 -7z"/>
<path d="M1840 2440 c0 -5 5 -10 10 -10 6 0 10 5 10 10 0 6 -4 10 -10 10 -5 0
-10 -4 -10 -10z"/>
<path d="M2265 2440 c3 -5 10 -10 16 -10 5 0 9 5 9 10 0 6 -7 10 -16 10 -8 0
-12 -4 -9 -10z"/>
<path d="M280 2410 c0 -5 5 -10 10 -10 6 0 10 5 10 10 0 6 -4 10 -10 10 -5 0
-10 -4 -10 -10z"/>
<path d="M710 2409 c0 -5 5 -7 10 -4 6 3 10 8 10 11 0 2 -4 4 -10 4 -5 0 -10
-5 -10 -11z"/>
<path d="M1140 2409 c0 -5 5 -7 10 -4 6 3 10 8 10 11 0 2 -4 4 -10 4 -5 0 -10
-5 -10 -11z"/>
<path d="M1445 2410 c3 -5 8 -10 11 -10 2 0 4 5 4 10 0 6 -5 10 -11 10 -5 0
-7 -4 -4 -10z"/>
<path d="M1870 2410 c0 -5 5 -10 10 -10 6 0 10 5 10 10 0 6 -4 10 -10 10 -5 0
-10 -4 -10 -10z"/>
<path d="M2295 2410 c3 -5 10 -10 16 -10 5 0 9 5 9 10 0 6 -7 10 -16 10 -8 0
-12 -4 -9 -10z"/>
<path d="M2400 2410 c0 -5 7 -7 15 -4 8 4 15 8 15 10 0 2 -7 4 -15 4 -8 0 -15
-4 -15 -10z"/>
<path d="M230 2376 c0 -17 24 -38 33 -29 15 15 6 43 -13 43 -11 0 -20 -6 -20
-14z"/>
<path d="M1904 2374 c3 -9 6 -20 6 -25 0 -5 11 -9 24 -9 13 0 27 -7 30 -16 4
-9 9 -14 13 -11 3 4 0 14 -7 23 -11 12 -11 20 -2 35 11 18 9 19 -29 19 -33 0
-40 -3 -35 -16z"/>
<path d="M2330 2365 c0 -30 11 -32 33 -7 23 25 21 32 -8 32 -20 0 -25 -5 -25
-25z"/>
<path d="M1566 2302 c-3 -6 -1 -14 5 -17 15 -10 25 3 12 16 -7 7 -13 7 -17 1z"/>
<path d="M310 2293 c0 -18 72 -90 77 -76 4 11 -30 53 -43 53 -4 0 -13 8 -20
18 -7 9 -14 12 -14 5z"/>
<path d="M1995 2290 c3 -5 11 -10 16 -10 6 0 7 5 4 10 -3 6 -11 10 -16 10 -6
0 -7 -4 -4 -10z"/>
<path d="M1595 2270 c-3 -5 1 -13 10 -16 22 -9 29 1 11 15 -10 8 -16 9 -21 1z"/>
<path d="M2033 2256 c9 -7 17 -18 17 -25 0 -6 5 -11 11 -11 7 0 18 -8 25 -17
7 -10 16 -14 20 -10 10 10 -59 77 -78 77 -9 -1 -7 -5 5 -14z"/>
<path d="M2240 2255 c0 -8 -7 -15 -15 -15 -8 0 -15 -7 -15 -16 0 -12 6 -11 29
8 33 26 38 38 16 38 -8 0 -15 -7 -15 -15z"/>
<path d="M2180 2194 c0 -12 -7 -15 -30 -12 -25 4 -31 1 -36 -18 -11 -44 7 -47
47 -8 39 38 48 54 29 54 -5 0 -10 -7 -10 -16z"/>
<path d="M844 2158 c-3 -13 -13 -31 -22 -40 -14 -16 -13 -18 2 -18 9 0 19 7
22 15 8 19 53 20 60 1 8 -20 34 -29 34 -11 0 8 -6 15 -13 15 -7 0 -18 14 -24
30 -14 37 -48 41 -59 8z"/>
<path d="M1690 2150 c0 -16 -5 -30 -11 -30 -15 0 -120 -106 -112 -113 3 -4 17
5 32 18 14 13 46 43 71 65 32 30 50 40 67 37 24 -4 29 7 17 37 -4 10 -18 16
-35 16 -26 0 -29 -4 -29 -30z"/>
<path d="M2085 2110 c-3 -5 1 -10 9 -10 9 0 16 5 16 10 0 6 -4 10 -9 10 -6 0
-13 -4 -16 -10z"/>
<path d="M1359 2092 c5 -9 31 -37 58 -61 68 -62 78 -78 62 -97 -11 -14 -10
-16 11 -13 14 1 33 -2 43 -6 26 -11 33 2 13 24 -15 16 -15 20 -1 31 8 7 12 17
9 22 -3 5 -14 2 -24 -7 -15 -14 -18 -14 -30 0 -7 8 -19 15 -26 15 -8 0 -14 7
-14 15 0 8 -7 15 -15 15 -8 0 -15 7 -15 15 0 8 -7 15 -15 15 -8 0 -15 7 -15
15 0 8 -7 15 -15 15 -8 0 -15 5 -15 10 0 6 -5 10 -10 10 -7 0 -7 -6 -1 -18z"/>
<path d="M950 2081 c0 -6 5 -13 10 -16 6 -3 10 1 10 9 0 9 -4 16 -10 16 -5 0
-10 -4 -10 -9z"/>
<path d="M2055 2080 c-3 -5 1 -10 9 -10 9 0 16 5 16 10 0 6 -4 10 -9 10 -6 0
-13 -4 -16 -10z"/>
<path d="M982 2051 c4 -13 18 -16 19 -4 0 4 -5 9 -11 12 -7 2 -11 -2 -8 -8z"/>
<path d="M2025 2050 c-3 -5 1 -10 10 -10 9 0 13 5 10 10 -3 6 -8 10 -10 10 -2
0 -7 -4 -10 -10z"/>
<path d="M1012 2021 c2 -7 7 -12 11 -12 12 1 9 15 -3 20 -7 2 -11 -2 -8 -8z"/>
<path d="M1995 2020 c-3 -5 -1 -10 4 -10 6 0 11 5 11 10 0 6 -2 10 -4 10 -3 0
-8 -4 -11 -10z"/>
<path d="M1967 1993 c-4 -3 -7 -11 -7 -17 0 -6 5 -5 12 2 6 6 9 14 7 17 -3 3
-9 2 -12 -2z"/>
<path d="M1904 1951 l-1 -40 23 17 c28 21 30 31 7 48 -26 20 -28 18 -29 -25z"/>
<path d="M710 1901 c0 -5 5 -13 10 -16 6 -3 10 -2 10 4 0 5 -4 13 -10 16 -5 3
-10 2 -10 -4z"/>
<path d="M1016 1901 c-4 -5 -2 -12 3 -15 5 -4 12 -2 15 3 4 5 2 12 -3 15 -5 4
-12 2 -15 -3z"/>
<path d="M1877 1903 c-4 -3 -7 -11 -7 -17 0 -6 5 -5 12 2 6 6 9 14 7 17 -3 3
-9 2 -12 -2z"/>
<path d="M1565 1890 c4 -6 11 -8 16 -5 14 9 11 15 -7 15 -8 0 -12 -5 -9 -10z"/>
<path d="M740 1865 c0 -8 4 -15 9 -15 5 0 37 -26 70 -57 90 -87 87 -86 88 -46
1 30 -2 34 -18 30 -20 -5 -63 24 -109 75 -27 31 -40 35 -40 13z"/>
<path d="M1170 1866 c0 -9 5 -16 10 -16 6 0 10 4 10 9 0 6 -4 13 -10 16 -5 3
-10 -1 -10 -9z"/>
<path d="M1797 1830 c-35 -37 -55 -50 -76 -50 -27 0 -29 -3 -28 -36 1 -20 3
-32 5 -25 2 6 8 11 14 11 6 0 37 27 70 60 32 33 63 60 68 60 6 0 10 7 10 15 0
24 -12 17 -63 -35z"/>
<path d="M985 1860 c4 -6 11 -8 16 -5 14 9 11 15 -7 15 -8 0 -12 -5 -9 -10z"/>
<path d="M1410 1860 c0 -5 5 -10 10 -10 6 0 10 5 10 10 0 6 -4 10 -10 10 -5 0
-10 -4 -10 -10z"/>
<path d="M1595 1860 c3 -5 10 -10 16 -10 5 0 9 5 9 10 0 6 -7 10 -16 10 -8 0
-12 -4 -9 -10z"/>
<path d="M1200 1836 c0 -9 5 -16 10 -16 6 0 10 4 10 9 0 6 -4 13 -10 16 -5 3
-10 -1 -10 -9z"/>
<path d="M1386 1841 c-4 -7 -5 -15 -2 -18 9 -9 19 4 14 18 -4 11 -6 11 -12 0z"/>
<path d="M955 1830 c3 -5 8 -10 11 -10 2 0 4 5 4 10 0 6 -5 10 -11 10 -5 0 -7
-4 -4 -10z"/>
<path d="M1625 1830 c4 -6 11 -8 16 -5 14 9 11 15 -7 15 -8 0 -12 -5 -9 -10z"/>
<path d="M925 1800 c3 -5 8 -10 11 -10 2 0 4 5 4 10 0 6 -5 10 -11 10 -5 0 -7
-4 -4 -10z"/>
<path d="M1230 1800 c0 -5 5 -10 10 -10 6 0 10 5 10 10 0 6 -4 10 -10 10 -5 0
-10 -4 -10 -10z"/>
<path d="M1350 1800 c0 -5 5 -10 10 -10 6 0 10 5 10 10 0 6 -4 10 -10 10 -5 0
-10 -4 -10 -10z"/>
<path d="M1660 1799 c0 -5 5 -7 10 -4 6 3 10 8 10 11 0 2 -4 4 -10 4 -5 0 -10
-5 -10 -11z"/>
<path d="M1263 1761 c5 -24 -4 -37 -76 -109 -45 -45 -90 -82 -100 -82 -24 0
-21 -16 5 -35 22 -15 23 -14 32 11 7 22 69 94 81 94 2 0 22 18 45 40 40 38 70
51 70 30 0 -5 7 -10 15 -10 8 0 15 -7 15 -15 0 -8 7 -15 15 -15 8 0 15 -7 15
-15 0 -8 7 -15 15 -15 24 0 18 10 -31 57 -37 36 -43 47 -33 59 15 18 13 20
-35 27 -38 6 -38 6 -33 -22z"/>
<path d="M1415 1620 c3 -5 13 -10 21 -10 8 0 12 5 9 10 -3 6 -13 10 -21 10 -8
0 -12 -4 -9 -10z"/>
<path d="M1480 1543 c0 -18 -5 -33 -12 -33 -6 0 -37 -27 -70 -60 -32 -33 -62
-60 -68 -60 -5 0 -14 -8 -19 -17 -10 -17 -12 -17 -25 0 -7 9 -16 17 -20 17 -3
0 -26 20 -49 45 -24 25 -50 45 -58 45 -8 0 19 -31 58 -70 40 -38 77 -70 82
-70 6 0 63 51 127 114 l118 113 -32 5 c-30 4 -32 3 -32 -29z"/>
</g>
</svg>
