<svg xmlns="http://www.w3.org/2000/svg" xmlns:xlink="http://www.w3.org/1999/xlink">

<symbol id="arrow" viewBox="0 0 16 16" fill="black" width="1em" height="1em" focusable="false" aria-hidden="true" class="SvgRWrapper"><path d="m3.7 6.7 3.8-3.8V15h1V2.9l3.8 3.8.7-.7-5-5-5 5z"></path></symbol>

<symbol id="logo" width="49" height="26" viewBox="0 0 49 26" fill="none" xmlns="http://www.w3.org/2000/svg">
<path d="M49 26H0L24.5 0L49 26ZM13.3075 13.1309L16.6442 16.6702L19.981 13.1309L16.6442 9.58115L13.3075 13.1309ZM16.6442 25.0052L19.981 21.466L16.6442 17.9162L13.3075 21.466L16.6442 25.0052ZM32.4083 25.0052L35.745 21.466L32.4083 17.9162L29.019 21.466L32.4083 25.0052ZM28.4673 5.40314C28.4473 5.43762 28.4207 5.46941 28.3885 5.49738C27.3507 6.6178 26.2997 7.73822 25.2357 8.84817C25.1437 8.94241 25.2357 9.00524 25.2357 9.08901L28.3097 12.356L28.4542 12.4921L31.7909 8.96335L28.4673 5.40314ZM8.78847 25.0052L8.91984 24.8691L11.9938 21.6126C12.0428 21.5717 12.0702 21.5173 12.0702 21.4607C12.0702 21.4042 12.0428 21.3498 11.9938 21.3089C11.0611 20.3456 10.1547 19.3613 9.23512 18.3874L8.78847 17.9162L5.45174 21.466L8.78847 25.0052ZM17.2354 8.95288L20.5721 12.4921L20.6772 12.3979L23.8169 9.06806C23.922 8.95288 23.8169 8.89005 23.8169 8.80628L20.7429 5.56021L20.6115 5.42408L17.2354 8.95288ZM17.2354 17.3298L20.5721 20.8691L20.7429 20.7016C21.7413 19.6545 22.7528 18.6073 23.7643 17.4869C23.7926 17.4663 23.8152 17.4412 23.8307 17.4133C23.8461 17.3853 23.8541 17.3551 23.8541 17.3246C23.8541 17.2941 23.8461 17.2639 23.8307 17.2359C23.8152 17.208 23.7926 17.1829 23.7643 17.1623C22.8185 16.1675 21.8727 15.1728 20.9399 14.1675L20.5721 13.7906L17.2354 17.3298ZM32.9995 17.3298L36.3362 20.8691L39.6729 17.3298L36.3362 13.7906L32.9995 17.3298ZM28.4673 13.7801V13.8534L25.3013 17.2147C25.1962 17.3089 25.2357 17.3717 25.3013 17.4555L28.244 20.5969C28.3228 20.6911 28.4147 20.7853 28.5198 20.8901L31.8566 17.3508L28.4673 13.7801ZM12.7295 20.8482C12.7453 20.8175 12.7675 20.7892 12.7952 20.7644L15.9611 17.4031C16.0531 17.2984 15.9611 17.2461 15.9611 17.1623L12.8477 13.8953C12.8069 13.8484 12.7583 13.8061 12.7032 13.7696L9.37962 17.2984L12.7295 20.8482ZM32.3558 16.6597L35.6925 13.1204L32.3558 9.59162L29.019 13.1309L32.3558 16.6597ZM24.4737 8.28272L27.8105 4.74346L24.5263 1.27749H24.4606L21.2552 4.71204C21.2354 4.73712 21.2249 4.76616 21.2249 4.79581C21.2249 4.82546 21.2354 4.8545 21.2552 4.87958L24.4737 8.28272ZM24.4737 16.6597L27.8105 13.1204L24.5 9.58115L21.1633 13.1309L24.4737 16.6597ZM24.4737 25.0366L27.8105 21.4974L24.4737 17.9476L21.1633 21.466L24.4737 25.0366ZM40.2378 25.0366L43.5745 21.4974L40.2509 17.9791H40.1853L36.9668 21.3613C36.8617 21.4764 36.9668 21.5288 36.9668 21.6021L39.5941 24.4398L40.2378 25.0366ZM1.89169 25.2356H7.88204L4.91314 22.0942L1.89169 25.2356ZM41.1705 25.2356H47.1083L44.1394 22.0942L41.1705 25.2356ZM23.5542 25.2356L20.5721 22.0942L17.5901 25.2356H23.5542ZM33.3147 25.2356H39.2525L36.2836 22.0942L33.3147 25.2356ZM31.3968 25.2356L28.4279 22.0942L25.459 25.2356H31.3968ZM15.6327 25.2356L12.6638 22.0942L9.69491 25.2356H15.6327Z" fill="white"/>
</symbol>

<symbol id="logo2" width="85" height="41" viewBox="0 0 85 41" fill="none" xmlns="http://www.w3.org/2000/svg">
<path d="M0 41L42.5 0L85 41H0ZM71.1751 40.3828H83.1745L77.1793 34.6113L71.1751 40.3828ZM57.3062 40.3828H69.3056L63.3104 34.6113L57.3062 40.3828ZM43.4353 40.3828H55.4367L49.4345 34.6113L43.4353 40.3828ZM29.5404 40.3828H41.5907L35.5656 34.6113L29.5404 40.3828ZM15.6015 40.3828H27.6019L21.6067 34.6113L15.6015 40.3828ZM1.81255 40.3828H13.9129L7.91767 34.6133L1.81255 40.3828ZM36.1691 34.0261L42.449 40.1854L48.783 34.0789L42.453 27.9574L36.1691 34.0261ZM64.2966 33.6402C64.2053 33.7189 64.1456 33.8278 64.1285 33.9469C64.1115 34.066 64.1381 34.1873 64.2036 34.2883V34.4159L64.2946 34.4648L68.9339 39.018L70.2978 40.1695L76.6167 34.0779L70.4307 28.1249H70.0679L64.2966 33.6402ZM22.2962 34.0281L28.6281 40.1326L34.958 34.0281L28.6281 27.9056L22.2962 34.0281ZM50.033 34.0281L56.4618 40.1306L62.7918 34.0281L56.4618 27.9076L50.033 34.0281ZM8.42726 34.0281L14.7552 40.1306L15.1998 39.7119L20.6285 34.4817C20.6998 34.4276 20.7576 34.3578 20.7975 34.2777C20.8373 34.1977 20.8582 34.1095 20.8583 34.0201C20.8567 33.9246 20.8327 33.8308 20.7881 33.7463C20.7435 33.6618 20.6796 33.5889 20.6015 33.5336C19.5264 32.5216 18.4502 31.4738 17.3711 30.427L15.7584 28.8677L14.7592 27.9056L8.42726 34.0281ZM15.3617 27.3393L21.7886 33.5296L21.9834 33.1866L27.6349 27.7261C27.7182 27.6504 27.7734 27.5489 27.7915 27.4379C27.8096 27.327 27.7897 27.2132 27.7348 27.115V26.9854L27.6349 26.8996L22.1393 21.6555C22.0482 21.5616 21.945 21.4802 21.8325 21.4132L21.6327 21.2926L15.3617 27.3393ZM43.699 26.9844C43.6423 27.0277 43.5948 27.082 43.5595 27.144C43.5241 27.206 43.5016 27.2744 43.4932 27.3453C43.4921 27.4283 43.5084 27.5106 43.5409 27.587C43.5734 27.6633 43.6215 27.7321 43.6821 27.7889L48.8949 32.8506C49.0288 32.9962 49.1946 33.1547 49.3945 33.3292L49.6063 33.5216L55.9323 27.423L49.1996 20.9785V21.6844L43.699 26.9844ZM57.0653 27.3832L63.3973 33.4897L69.7272 27.3832L63.3973 21.2786L57.0653 27.3832ZM29.2316 27.3832L35.5556 33.4817L36.0691 33.0241L36.8975 32.2345C38.3763 30.8268 39.9061 29.3721 41.4159 27.8478C41.4897 27.7976 41.5505 27.7307 41.5934 27.6525C41.6363 27.5744 41.66 27.4872 41.6627 27.3981C41.6649 27.302 41.6442 27.2066 41.6024 27.12C41.5605 27.0333 41.4987 26.9578 41.4219 26.8996C39.7002 25.2586 38.0516 23.6844 36.4259 22.0922L35.5586 21.2836L29.2316 27.3832ZM22.2972 20.6465L28.6291 26.7491L34.959 20.6465L28.6291 14.5221L22.2972 20.6465ZM36.1681 20.6465L42.452 26.7361L48.782 20.6316L42.498 14.5251L36.1681 20.6465ZM50.037 20.6465L56.3689 26.7341L62.6988 20.6276L56.3669 14.54L50.037 20.6465ZM49.2436 8.07857C49.2251 8.10788 49.2014 8.13355 49.1737 8.15433C47.3171 9.97283 45.4636 11.7714 43.5861 13.551C43.5031 13.624 43.4475 13.723 43.4284 13.8317C43.4093 13.9404 43.4279 14.0524 43.4812 14.1492V14.2788L43.5811 14.3715L49.0078 19.6157L49.4874 20.0284L55.8064 13.9528L49.4454 7.75654L49.2436 8.07857ZM29.2306 13.9428L35.5476 20.0324L35.9472 19.7084L41.5098 14.3486C41.6001 14.269 41.6595 14.1604 41.6777 14.0416C41.696 13.9229 41.6719 13.8015 41.6097 13.6986V13.5689L41.5098 13.4892L35.6385 7.85923L29.2306 13.9428ZM36.5558 6.91905C36.4665 7.01021 36.4151 7.13162 36.4118 7.25899C36.4085 7.38636 36.4535 7.51031 36.5378 7.606L42.452 13.2938L48.784 7.18725L42.6679 1.32099H42.3042L36.5558 6.91905Z" fill="#9D8665"/>
</symbol>


<symbol id="youtube" width="48" height="48" viewBox="0 0 48 48" fill="none" xmlns="http://www.w3.org/2000/svg">
<g filter="url(#filter0_d_1_1743)">
<rect x="0.5" y="0.5" width="47" height="47" rx="23.5" stroke="#666666"/>
</g>
<path d="M22.03 27.38V20.62L27.97 24L22.03 27.38ZM35.23 18.5C35.1026 18.0177 34.8508 17.5773 34.4998 17.2229C34.1488 16.8684 33.711 16.6122 33.23 16.48C31.46 16 24.35 16 24.35 16C24.35 16 17.25 16 15.48 16.48C14.999 16.6122 14.5612 16.8684 14.2102 17.2229C13.8592 17.5773 13.6074 18.0177 13.48 18.5C13 20.28 13 24 13 24C13 24 13 27.72 13.47 29.5C13.5983 29.9835 13.8516 30.4247 14.2044 30.7793C14.5572 31.1338 14.9972 31.3893 15.48 31.52C17.25 32 24.36 32 24.36 32C24.36 32 31.46 32 33.23 31.52C33.711 31.3878 34.1488 31.1316 34.4998 30.7771C34.8508 30.4227 35.1026 29.9823 35.23 29.5C35.71 27.72 35.71 24 35.71 24C35.71 24 35.71 20.28 35.24 18.5H35.23Z" fill="white"/>
</symbol>

<symbol id="instagram" width="48" height="48" viewBox="0 0 48 48" fill="none" xmlns="http://www.w3.org/2000/svg">
<g filter="url(#filter0_d_1_1739)">
<rect x="0.5" y="0.5" width="47" height="47" rx="23.5" stroke="#666666"/>
</g>
<path d="M25.0202 14C26.8202 14 27.2002 14.02 28.1202 14.06C29.1802 14.11 29.9102 14.28 30.5402 14.53C31.2002 14.78 31.7602 15.13 32.3102 15.68C32.8702 16.23 33.2102 16.79 33.4702 17.45C33.7202 18.08 33.8802 18.81 33.9302 19.88C33.9802 20.83 33.9902 21.2 33.9902 23.2V24.8C33.9902 26.8 33.9802 27.17 33.9302 28.12C33.9144 28.9468 33.7589 29.7651 33.4702 30.54C33.2102 31.2 32.8702 31.76 32.3202 32.31C31.7602 32.87 31.2002 33.21 30.5402 33.47C29.9102 33.72 29.1802 33.88 28.1202 33.93C27.1702 33.98 26.7902 33.99 24.7902 33.99H23.2002C21.2002 33.99 20.8302 33.98 19.8702 33.93C19.0433 33.9141 18.2251 33.7586 17.4502 33.47C16.7838 33.2195 16.1798 32.8271 15.6802 32.32C15.168 31.8186 14.772 31.211 14.5202 30.54C14.2318 29.765 14.0763 28.9468 14.0602 28.12C14.0111 27.0874 13.9911 26.0537 14.0002 25.02V22.97C14.0002 21.17 14.0202 20.79 14.0602 19.87C14.1102 18.81 14.2802 18.08 14.5202 17.45C14.7802 16.79 15.1202 16.23 15.6802 15.68C16.1753 15.1674 16.7806 14.7742 17.4502 14.53C18.2246 14.2382 19.0428 14.0793 19.8702 14.06C20.7902 14.02 21.1702 14 22.9702 14H25.0202ZM25.0402 15.8H22.9502C21.2202 15.8 20.8502 15.82 19.9502 15.86C18.9802 15.9 18.4502 16.06 18.1002 16.2C17.6302 16.38 17.3002 16.6 16.9502 16.95C16.6002 17.3 16.3802 17.63 16.2002 18.1C16.0702 18.45 15.9002 18.98 15.8602 19.96C15.8202 20.86 15.8002 21.22 15.8002 22.96V25.04C15.8002 26.78 15.8202 27.14 15.8602 28.04C15.9002 29.01 16.0602 29.54 16.2002 29.89C16.3802 30.36 16.6002 30.69 16.9502 31.04C17.3002 31.39 17.6302 31.61 18.1002 31.79C18.4502 31.93 18.9802 32.09 19.9602 32.13C20.9302 32.18 21.2802 32.19 23.4402 32.19H24.5502C26.7202 32.19 27.0602 32.18 28.0402 32.13C29.0102 32.09 29.5402 31.93 29.8902 31.79C30.3602 31.61 30.6902 31.39 31.0402 31.04C31.3902 30.69 31.6102 30.36 31.7902 29.89C31.9302 29.54 32.0902 29.01 32.1302 28.04C32.1802 27.06 32.1902 26.72 32.1902 24.55V23.45C32.1902 21.28 32.1802 20.93 32.1302 19.95C32.0902 18.98 31.9302 18.45 31.7902 18.1C31.6292 17.6654 31.373 17.2725 31.0402 16.95C30.7179 16.6169 30.3249 16.3606 29.8902 16.2C29.2971 15.9832 28.6716 15.8682 28.0402 15.86C27.0409 15.8123 26.0405 15.7923 25.0402 15.8ZM24.0002 18.86C25.362 18.86 26.6681 19.401 27.6311 20.364C28.5941 21.327 29.1352 22.6331 29.1352 23.995C29.1352 25.3569 28.5941 26.663 27.6311 27.626C26.6681 28.589 25.362 29.13 24.0002 29.13C22.6383 29.13 21.3322 28.589 20.3692 27.626C19.4062 26.663 18.8652 25.3569 18.8652 23.995C18.8652 22.6331 19.4062 21.327 20.3692 20.364C21.3322 19.401 22.6383 18.86 24.0002 18.86ZM24.0002 20.66C23.1157 20.66 22.2674 21.0114 21.642 21.6368C21.0165 22.2622 20.6652 23.1105 20.6652 23.995C20.6652 24.8795 21.0165 25.7278 21.642 26.3532C22.2674 26.9786 23.1157 27.33 24.0002 27.33C24.8847 27.33 25.7329 26.9786 26.3584 26.3532C26.9838 25.7278 27.3352 24.8795 27.3352 23.995C27.3352 23.1105 26.9838 22.2622 26.3584 21.6368C25.7329 21.0114 24.8847 20.66 24.0002 20.66ZM29.3302 17.46C29.6484 17.46 29.9536 17.5864 30.1787 17.8115C30.4037 18.0365 30.5302 18.3417 30.5302 18.66C30.5302 18.9783 30.4037 19.2835 30.1787 19.5085C29.9536 19.7336 29.6484 19.86 29.3302 19.86C29.0119 19.86 28.7067 19.7336 28.4816 19.5085C28.2566 19.2835 28.1302 18.9783 28.1302 18.66C28.1302 18.3417 28.2566 18.0365 28.4816 17.8115C28.7067 17.5864 29.0119 17.46 29.3302 17.46Z" fill="white"/>
</symbol>

<symbol id="facebook" width="48" height="48" viewBox="0 0 48 48" fill="none" xmlns="http://www.w3.org/2000/svg">
<g filter="url(#filter0_d_1_1735)">
<rect x="0.5" y="0.5" width="47" height="47" rx="23.5" stroke="#666666"/>
</g>
<path d="M21.78 34L21.75 25.25H18V21.5H21.75V19C21.75 15.63 23.84 14 26.85 14C28.29 14 29.53 14.1 29.89 14.15V17.68H27.8C26.17 17.68 25.85 18.46 25.85 19.6V21.5H30.5L29.25 25.25H25.85V34H21.78Z" fill="white"/>
</symbol>

<symbol id="twitter" width="48" height="48" viewBox="0 0 48 48" fill="none" xmlns="http://www.w3.org/2000/svg">
<g filter="url(#filter0_d_1_1731)">
<rect x="0.5" y="0.5" width="47" height="47" rx="23.5" stroke="#666666"/>
</g>
<path d="M34 17.88C33.25 18.25 32.5 18.38 31.62 18.5C32.5 18 33.12 17.25 33.37 16.25C32.5606 16.7313 31.6743 17.0696 30.75 17.25C29.9485 16.4623 28.8737 16.0145 27.75 16C25.62 16 23.75 17.88 23.75 20.13C23.75 20.5 23.75 20.75 23.88 21C22.2422 20.9382 20.6364 20.5271 19.1705 19.7941C17.7045 19.0611 16.4121 18.0232 15.38 16.75C15.0081 17.3956 14.8342 18.1363 14.88 18.88C14.8916 19.552 15.0683 20.2108 15.3943 20.7984C15.7204 21.3861 16.186 21.8846 16.75 22.25C16.12 22.25 15.5 22 14.87 21.75C14.87 23.75 16.25 25.38 18.12 25.75C17.75 25.88 17.37 25.88 17 25.88C16.75 25.88 16.5 25.88 16.25 25.75C16.75 27.38 18.25 28.63 20.13 28.63C18.6778 29.7963 16.8622 30.4156 15 30.38H14C15.875 31.5591 18.0355 32.2056 20.25 32.25C27.75 32.25 31.88 26 31.88 20.62V20.12C32.7387 19.5335 33.4617 18.7697 34 17.88Z" fill="white"/>
</symbol>

<symbol id="pinterest" width="48" height="48" viewBox="0 0 48 48" fill="none" xmlns="http://www.w3.org/2000/svg">
<g filter="url(#filter0_d_1_1727)">
<rect x="0.5" y="0.5" width="47" height="47" rx="23.5" stroke="#666666"/>
</g>
<path d="M24.0002 14C21.6757 14.0082 19.4267 14.826 17.6398 16.3128C15.8529 17.7995 14.6397 19.8623 14.2089 22.1466C13.7781 24.4309 14.1565 26.7939 15.2791 28.8293C16.4017 30.8648 18.1984 32.4456 20.3602 33.3C20.2602 32.51 20.1902 31.3 20.3902 30.43L21.5602 25.46C21.5602 25.46 21.2602 24.86 21.2602 23.98C21.2602 22.59 22.0702 21.56 23.0802 21.56C23.9302 21.56 24.3502 22.2 24.3502 22.96C24.3502 23.82 23.8002 25.1 23.5102 26.29C23.2702 27.29 24.0102 28.1 25.0002 28.1C26.7802 28.1 28.1402 26.23 28.1402 23.53C28.1402 21.13 26.4202 19.47 23.9602 19.47C23.3758 19.4443 22.7923 19.5373 22.2448 19.7434C21.6973 19.9495 21.1973 20.2644 20.7749 20.669C20.3525 21.0737 20.0164 21.5598 19.787 22.0979C19.5576 22.636 19.4397 23.215 19.4402 23.8C19.4402 24.66 19.7702 25.58 20.1802 26.08C20.2602 26.18 20.2702 26.27 20.2402 26.37L19.9602 27.5C19.9202 27.68 19.8102 27.73 19.6302 27.64C18.3702 27.05 17.5902 25.24 17.5902 23.76C17.5902 20.61 19.8902 17.72 24.2102 17.72C27.6702 17.72 30.3802 20.18 30.3802 23.49C30.3802 26.94 28.2002 29.71 25.1802 29.71C24.1802 29.71 23.2202 29.18 22.9002 28.56L22.2702 30.93C21.9751 31.8577 21.5581 32.7421 21.0302 33.56C22.4041 33.9816 23.8526 34.1021 25.2772 33.9133C26.7018 33.7245 28.069 33.2309 29.2856 32.4661C30.5023 31.7014 31.5398 30.6833 32.3275 29.4814C33.1152 28.2795 33.6346 26.9219 33.8504 25.5011C34.0661 24.0804 33.9731 22.6298 33.5776 21.2482C33.1822 19.8666 32.4936 18.5865 31.5588 17.4951C30.6241 16.4036 29.465 15.5264 28.1607 14.9233C26.8563 14.3202 25.4373 14.0053 24.0002 14Z" fill="white"/>
</symbol>

<symbol id="date1" width="15" height="15" viewBox="0 0 15 15" fill="none" xmlns="http://www.w3.org/2000/svg">
<path d="M13.585 1.21691H12.0982V0.498732C12.0982 0.36646 12.045 0.239613 11.9502 0.146082C11.8555 0.052552 11.7269 0 11.5929 0C11.4589 0 11.3303 0.052552 11.2356 0.146082C11.1408 0.239613 11.0875 0.36646 11.0875 0.498732V1.21292H3.91146V0.498732C3.91146 0.36646 3.85822 0.239613 3.76345 0.146082C3.66868 0.052552 3.54014 0 3.40611 0C3.27208 0 3.14354 0.052552 3.04877 0.146082C2.954 0.239613 2.90075 0.36646 2.90075 0.498732V1.21292H1.415C1.04059 1.21292 0.681447 1.35937 0.416228 1.62018C0.151009 1.88099 0.00133717 2.2349 0 2.6044V3.85619H14.996V2.6044C14.9936 2.23629 14.844 1.884 14.5798 1.62417C14.3155 1.36433 13.958 1.21795 13.585 1.21691Z" fill="#030303"/>
<path d="M0 13.6086C0.00133717 13.9781 0.151009 14.3321 0.416228 14.5929C0.681447 14.8537 1.04059 15.0001 1.415 15.0001H13.585C13.9594 15.0001 14.3186 14.8537 14.5838 14.5929C14.849 14.3321 14.9987 13.9781 15 13.6086V4.93066H0V13.6086ZM7.075 11.8681C7.11993 11.3986 7.26002 10.9428 7.48695 10.5278C7.71388 10.1128 8.02302 9.74698 8.396 9.45219C9.09541 8.72802 9.27835 8.50359 9.27835 7.93903C9.27835 7.51011 9.16616 7.17497 8.67192 7.17497C8.17769 7.17497 8.02709 7.53206 8.00384 8.10261H7.11138C7.08791 7.88932 7.11245 7.67355 7.18324 7.4707C7.25404 7.26785 7.36934 7.08292 7.52092 6.92914C7.6725 6.77535 7.85662 6.6565 8.06013 6.58105C8.26364 6.5056 8.48151 6.47542 8.6982 6.49268C8.90216 6.46457 9.10993 6.48291 9.30559 6.54629C9.50126 6.60966 9.67963 6.71641 9.82704 6.85833C9.97446 7.00025 10.087 7.17357 10.156 7.36504C10.2251 7.55652 10.2488 7.76103 10.2254 7.96295C10.2254 8.63226 10.0232 8.98738 9.26016 9.72451C8.78529 10.1283 8.40375 10.628 8.1413 11.1898H10.382L10.2567 11.9189H7.075V11.8681ZM4.67657 6.96749C5.047 6.91625 5.39635 6.76662 5.68728 6.5346H6.30281V11.9209H5.38104V7.53207C5.14897 7.58541 4.91179 7.61417 4.67354 7.61785L4.67657 6.96749Z" fill="#030303"/>
</symbol>

<symbol id="time" width="15" height="15" viewBox="0 0 15 15" fill="none" xmlns="http://www.w3.org/2000/svg">
<path d="M7.49142 1.76945e-06C6.00839 0.00169958 4.55915 0.443039 3.32689 1.26822C2.09464 2.0934 1.13468 3.26537 0.568362 4.63602C0.00204669 6.00666 -0.145202 7.51442 0.145226 8.96874C0.435653 10.4231 1.15072 11.7586 2.20004 12.8066C3.24936 13.8546 4.58582 14.568 6.0405 14.8566C7.49518 15.1452 9.00276 14.9961 10.3727 14.428C11.7426 13.86 12.9134 12.8985 13.737 11.6652C14.5607 10.4319 15.0002 8.98218 15 7.49915C14.9994 6.51371 14.8048 5.53802 14.4271 4.62782C14.0495 3.71762 13.4962 2.89073 12.799 2.19436C12.1017 1.49799 11.2741 0.945796 10.3634 0.569285C9.45277 0.192773 8.47685 -0.000674971 7.49142 1.76945e-06ZM10.4004 10.0192C10.3273 10.1214 10.2166 10.1904 10.0926 10.211C9.9686 10.2316 9.84152 10.2022 9.73927 10.1291L6.95478 8.14311V3.93588C6.9492 3.87048 6.95726 3.80465 6.97846 3.74253C6.99965 3.68041 7.03353 3.62336 7.07792 3.57501C7.12232 3.52667 7.17627 3.48806 7.23636 3.46166C7.29645 3.43526 7.36139 3.42162 7.42702 3.42162C7.49266 3.42162 7.55758 3.43526 7.61768 3.46166C7.67777 3.48806 7.73172 3.52667 7.77611 3.57501C7.82051 3.62336 7.85438 3.68041 7.87558 3.74253C7.89677 3.80465 7.90483 3.87048 7.89925 3.93588V7.65713L10.2862 9.36063C10.3372 9.39608 10.3808 9.44124 10.4143 9.49353C10.4479 9.54581 10.4709 9.60421 10.4819 9.66537C10.4929 9.72652 10.4917 9.78923 10.4785 9.84994C10.4652 9.91065 10.4402 9.96816 10.4047 10.0192H10.4004Z" fill="#030303"/>
</symbol>

<symbol id="name1" width="13" height="15" viewBox="0 0 13 15" fill="none" xmlns="http://www.w3.org/2000/svg">
<path d="M7.9017 9.45749C7.9017 9.43118 7.91838 9.40973 7.91838 9.38536V7.71004C7.91142 7.66336 7.90132 7.61714 7.88815 7.57165C8.54145 7.19251 9.07974 6.66291 9.45149 6.03359C9.82325 5.40426 10.016 4.69625 10.0114 3.97732C10.0114 1.78058 8.4385 0 6.49976 0C4.56101 0 2.98813 1.77961 2.98813 3.97732C3.00484 4.69886 3.21494 5.40495 3.59918 6.03088C3.98343 6.6568 4.52954 7.18253 5.18746 7.55993C5.1719 7.60906 5.1604 7.65926 5.15306 7.71004V9.3834C5.1558 9.39688 5.15928 9.41023 5.16348 9.42338C2.19283 9.76643 -0.000244141 11.2751 -0.000244141 12.7672C-0.000244141 14.464 2.90891 15 6.49976 15C10.0906 15 12.9998 14.464 12.9998 12.7672C12.9987 11.3131 10.7952 9.84635 7.9017 9.45749Z" fill="#030303"/>
</symbol>

<symbol id="email" width="15" height="11" viewBox="0 0 15 11" fill="none" xmlns="http://www.w3.org/2000/svg">
<path d="M14.443 0.000245271H0.554862C0.481958 8.78986e-05 0.409744 0.0163595 0.342363 0.0481753C0.274982 0.0799912 0.213762 0.126701 0.162211 0.185623C0.11066 0.244546 0.0697941 0.314543 0.0419587 0.391559C0.0141232 0.468575 -0.000136697 0.551124 9.87603e-07 0.634453V10.366C-0.000136697 10.4493 0.0141232 10.5319 0.0419587 10.6089C0.0697941 10.6859 0.11066 10.7559 0.162211 10.8148C0.213762 10.8737 0.274982 10.9204 0.342363 10.9522C0.409744 10.9841 0.481958 11.0004 0.554862 11.0002H14.443C14.516 11.0004 14.5884 10.9841 14.6559 10.9523C14.7234 10.9205 14.7847 10.8738 14.8364 10.8149C14.8882 10.7561 14.9292 10.6861 14.9573 10.6091C14.9853 10.5321 14.9999 10.4494 15 10.366V0.634453C14.9999 0.551012 14.9853 0.468406 14.9573 0.391377C14.9292 0.314347 14.8882 0.244369 14.8364 0.185478C14.7847 0.126587 14.7234 0.0799255 14.6559 0.0481389C14.5884 0.0163523 14.516 8.82793e-05 14.443 0.000245271ZM13.6688 2.88578L7.83908 6.73878H7.37931L1.55173 2.88698C1.48634 2.84354 1.42908 2.7858 1.38322 2.71706C1.33735 2.64832 1.30378 2.56994 1.28443 2.48638C1.26507 2.40281 1.2603 2.31567 1.2704 2.23C1.28049 2.14432 1.30525 2.06177 1.34326 1.98703C1.38127 1.91229 1.43179 1.84686 1.49193 1.79443C1.55207 1.74201 1.62065 1.70364 1.69377 1.68152C1.76688 1.65939 1.84309 1.65394 1.91804 1.66548C1.993 1.67702 2.06523 1.70532 2.13062 1.74876L7.60815 5.37005L13.0857 1.74876C13.1511 1.70532 13.2233 1.67702 13.2983 1.66548C13.3732 1.65394 13.4494 1.65939 13.5225 1.68152C13.5956 1.70364 13.6642 1.74201 13.7244 1.79443C13.7845 1.84686 13.835 1.91229 13.873 1.98703C13.9111 2.06177 13.9358 2.14432 13.9459 2.23C13.956 2.31567 13.9512 2.40281 13.9319 2.48638C13.9125 2.56994 13.8789 2.64832 13.8331 2.71706C13.7872 2.7858 13.73 2.84354 13.6646 2.88698L13.6688 2.88578Z" fill="#030303"/>
</symbol>

<symbol id="phone" width="14" height="23" viewBox="0 0 14 23" fill="none" xmlns="http://www.w3.org/2000/svg">
<path d="M12.3738 0H1.62824C1.19674 0.00106214 0.783231 0.167559 0.478113 0.463097C0.172995 0.758634 0.00109658 1.15916 0 1.57711V21.4229C0.00109658 21.8408 0.172995 22.2414 0.478113 22.5369C0.783231 22.8324 1.19674 22.9989 1.62824 23H12.3738C12.8051 22.9989 13.2184 22.8324 13.5232 22.5368C13.828 22.2412 13.9995 21.8406 14 21.4229V1.57711C13.9995 1.15935 13.828 0.758814 13.5232 0.463219C13.2184 0.167625 12.8051 0.00106404 12.3738 0ZM3.94496 21.1845H2.19003C2.0347 21.1845 1.88573 21.1247 1.7759 21.0183C1.66606 20.9119 1.60436 20.7677 1.60436 20.6172C1.60436 20.4668 1.66606 20.3225 1.7759 20.2161C1.88573 20.1097 2.0347 20.0499 2.19003 20.0499H3.94496C4.10029 20.0499 4.24926 20.1097 4.35909 20.2161C4.46893 20.3225 4.53063 20.4668 4.53063 20.6172C4.53063 20.7677 4.46893 20.9119 4.35909 21.0183C4.24926 21.1247 4.10029 21.1845 3.94496 21.1845ZM3.94496 19.023H2.19003C2.03497 19.023 1.88627 18.9634 1.77663 18.8572C1.66699 18.751 1.6054 18.6069 1.6054 18.4567C1.6054 18.3066 1.66699 18.1625 1.77663 18.0563C1.88627 17.9501 2.03497 17.8904 2.19003 17.8904H3.94496C4.10002 17.8904 4.24872 17.9501 4.35836 18.0563C4.468 18.1625 4.5296 18.3066 4.5296 18.4567C4.5296 18.6069 4.468 18.751 4.35836 18.8572C4.24872 18.9634 4.10002 19.023 3.94496 19.023ZM3.94496 16.8635H2.19003C2.0347 16.8635 1.88573 16.8037 1.7759 16.6974C1.66606 16.591 1.60436 16.4467 1.60436 16.2962C1.60436 16.1458 1.66606 16.0015 1.7759 15.8951C1.88573 15.7887 2.0347 15.729 2.19003 15.729H3.94496C4.10029 15.729 4.24926 15.7887 4.35909 15.8951C4.46893 16.0015 4.53063 16.1458 4.53063 16.2962C4.53063 16.4467 4.46893 16.591 4.35909 16.6974C4.24926 16.8037 4.10029 16.8635 3.94496 16.8635ZM3.94496 14.702H2.19003C2.0347 14.702 1.88573 14.6423 1.7759 14.5359C1.66606 14.4295 1.60436 14.2852 1.60436 14.1347C1.60436 13.9843 1.66606 13.84 1.7759 13.7336C1.88573 13.6272 2.0347 13.5674 2.19003 13.5674H3.94496C4.10029 13.5674 4.24926 13.6272 4.35909 13.7336C4.46893 13.84 4.53063 13.9843 4.53063 14.1347C4.53063 14.2852 4.46893 14.4295 4.35909 14.5359C4.24926 14.6423 4.10029 14.702 3.94496 14.702ZM7.87747 21.1855H6.12461C5.96928 21.1855 5.82031 21.1257 5.71048 21.0193C5.60065 20.913 5.53894 20.7687 5.53894 20.6182C5.53894 20.4678 5.60065 20.3235 5.71048 20.2171C5.82031 20.1107 5.96928 20.0509 6.12461 20.0509H7.87747C8.03279 20.0509 8.18176 20.1107 8.2916 20.2171C8.40143 20.3235 8.46313 20.4678 8.46313 20.6182C8.46313 20.7687 8.40143 20.913 8.2916 21.0193C8.18176 21.1257 8.03279 21.1855 7.87747 21.1855ZM7.87747 19.024H6.12461C6.04784 19.024 5.97181 19.0093 5.90088 18.9809C5.82995 18.9524 5.7655 18.9107 5.71121 18.8581C5.65692 18.8056 5.61386 18.7431 5.58448 18.6744C5.5551 18.6057 5.53998 18.5321 5.53998 18.4577C5.53998 18.3834 5.5551 18.3097 5.58448 18.241C5.61386 18.1723 5.65692 18.1099 5.71121 18.0573C5.7655 18.0047 5.82995 17.963 5.90088 17.9346C5.97181 17.9061 6.04784 17.8915 6.12461 17.8915H7.87747C7.95424 17.8915 8.03026 17.9061 8.10119 17.9346C8.17212 17.963 8.23658 18.0047 8.29086 18.0573C8.34515 18.1099 8.38822 18.1723 8.4176 18.241C8.44698 18.3097 8.4621 18.3834 8.4621 18.4577C8.4621 18.5321 8.44698 18.6057 8.4176 18.6744C8.38822 18.7431 8.34515 18.8056 8.29086 18.8581C8.23658 18.9107 8.17212 18.9524 8.10119 18.9809C8.03026 19.0093 7.95424 19.024 7.87747 19.024ZM7.87747 16.8645H6.12461C5.96928 16.8645 5.82031 16.8048 5.71048 16.6984C5.60065 16.592 5.53894 16.4477 5.53894 16.2972C5.53894 16.1468 5.60065 16.0025 5.71048 15.8961C5.82031 15.7897 5.96928 15.73 6.12461 15.73H7.87747C8.03279 15.73 8.18176 15.7897 8.2916 15.8961C8.40143 16.0025 8.46313 16.1468 8.46313 16.2972C8.46313 16.4477 8.40143 16.592 8.2916 16.6984C8.18176 16.8048 8.03279 16.8645 7.87747 16.8645ZM7.87747 14.703H6.12461C6.0477 14.703 5.97154 14.6884 5.90048 14.6598C5.82943 14.6313 5.76486 14.5895 5.71048 14.5369C5.6561 14.4842 5.61295 14.4217 5.58352 14.3528C5.55409 14.284 5.53894 14.2102 5.53894 14.1357C5.53894 14.0612 5.55409 13.9875 5.58352 13.9187C5.61295 13.8498 5.6561 13.7873 5.71048 13.7346C5.76486 13.6819 5.82943 13.6401 5.90048 13.6116C5.97154 13.5831 6.0477 13.5685 6.12461 13.5685H7.87747C7.95438 13.5685 8.03053 13.5831 8.10159 13.6116C8.17265 13.6401 8.23721 13.6819 8.2916 13.7346C8.34598 13.7873 8.38912 13.8498 8.41856 13.9187C8.44799 13.9875 8.46313 14.0612 8.46313 14.1357C8.46313 14.2102 8.44799 14.284 8.41856 14.3528C8.38912 14.4217 8.34598 14.4842 8.2916 14.5369C8.23721 14.5895 8.17265 14.6313 8.10159 14.6598C8.03053 14.6884 7.95438 14.703 7.87747 14.703ZM11.81 21.1865H10.055C9.89971 21.1865 9.75074 21.1267 9.64091 21.0204C9.53107 20.914 9.46937 20.7697 9.46937 20.6192C9.46937 20.4688 9.53107 20.3245 9.64091 20.2181C9.75074 20.1117 9.89971 20.052 10.055 20.052H11.81C11.9653 20.052 12.1143 20.1117 12.2241 20.2181C12.3339 20.3245 12.3956 20.4688 12.3956 20.6192C12.3956 20.7697 12.3339 20.914 12.2241 21.0204C12.1143 21.1267 11.9653 21.1865 11.81 21.1865ZM11.81 19.025H10.055C9.89998 19.025 9.75128 18.9653 9.64164 18.8591C9.532 18.753 9.47041 18.6089 9.47041 18.4587C9.47041 18.3085 9.532 18.1645 9.64164 18.0583C9.75128 17.9521 9.89998 17.8925 10.055 17.8925H11.81C11.965 17.8925 12.1137 17.9521 12.2234 18.0583C12.333 18.1645 12.3946 18.3085 12.3946 18.4587C12.3946 18.6089 12.333 18.753 12.2234 18.8591C12.1137 18.9653 11.965 19.025 11.81 19.025ZM11.81 16.8655H10.055C9.97813 16.8655 9.90197 16.8509 9.83091 16.8223C9.75985 16.7938 9.69529 16.7521 9.64091 16.6994C9.58652 16.6467 9.54338 16.5842 9.51395 16.5153C9.48452 16.4465 9.46937 16.3727 9.46937 16.2982C9.46937 16.2237 9.48452 16.15 9.51395 16.0812C9.54338 16.0123 9.58652 15.9498 9.64091 15.8971C9.69529 15.8444 9.75985 15.8026 9.83091 15.7741C9.90197 15.7456 9.97813 15.731 10.055 15.731H11.81C11.8869 15.731 11.963 15.7456 12.0341 15.7741C12.1052 15.8026 12.1697 15.8444 12.2241 15.8971C12.2785 15.9498 12.3216 16.0123 12.3511 16.0812C12.3805 16.15 12.3956 16.2237 12.3956 16.2982C12.3956 16.3727 12.3805 16.4465 12.3511 16.5153C12.3216 16.5842 12.2785 16.6467 12.2241 16.6994C12.1697 16.7521 12.1052 16.7938 12.0341 16.8223C11.963 16.8509 11.8869 16.8655 11.81 16.8655ZM11.81 14.704H10.055C9.89971 14.704 9.75074 14.6442 9.64091 14.5379C9.53107 14.4315 9.46937 14.2872 9.46937 14.1367C9.46937 13.9863 9.53107 13.842 9.64091 13.7356C9.75074 13.6292 9.89971 13.5695 10.055 13.5695H11.81C11.9653 13.5695 12.1143 13.6292 12.2241 13.7356C12.3339 13.842 12.3956 13.9863 12.3956 14.1367C12.3956 14.2872 12.3339 14.4315 12.2241 14.5379C12.1143 14.6442 11.9653 14.704 11.81 14.704ZM12.433 12.2619H1.56905V1.85171H12.4299L12.433 12.2619Z" fill="#030303"/>
</symbol>

<symbol id="ticket" width="15" height="15" viewBox="0 0 15 15" fill="none" xmlns="http://www.w3.org/2000/svg">
<g clip-path="url(#clip0_1_1682)">
<path fill-rule="evenodd" clip-rule="evenodd" d="M8.33333 5.41667H12.5V3.75H8.33333V5.41667ZM8.33333 11.25H12.5V9.58333H8.33333V11.25ZM13.3333 15H1.66667C0.75 15 0 14.25 0 13.3333V1.66667C0 0.75 0.75 0 1.66667 0H13.3333C14.25 0 15 0.75 15 1.66667V13.3333C15 14.25 14.25 15 13.3333 15ZM2.5 6.66667H6.66667V2.5H2.5V6.66667ZM3.33333 3.33333H5.83333V5.83333H3.33333V3.33333ZM2.5 12.5H6.66667V8.33333H2.5V12.5ZM3.33333 9.16667H5.83333V11.6667H3.33333V9.16667Z" fill="#030303"/>
</g>
</symbol>

<symbol id="check" width="15" height="15" viewBox="0 0 15 15" fill="none" xmlns="http://www.w3.org/2000/svg">
<g clip-path="url(#clip0_1_1653)">
<path d="M10.9425 4.185L6 9.1275L3.3075 6.4425L2.25 7.5L6 11.25L12 5.25L10.9425 4.185ZM7.5 0C3.36 0 0 3.36 0 7.5C0 11.64 3.36 15 7.5 15C11.64 15 15 11.64 15 7.5C15 3.36 11.64 0 7.5 0ZM7.5 13.5C4.185 13.5 1.5 10.815 1.5 7.5C1.5 4.185 4.185 1.5 7.5 1.5C10.815 1.5 13.5 4.185 13.5 7.5C13.5 10.815 10.815 13.5 7.5 13.5Z" fill="black"/>
</g>
</symbol>

<symbol id="visa" width="55" height="16" viewBox="0 0 55 16" fill="none" xmlns="http://www.w3.org/2000/svg">
<path d="M10.4473 8.24151L8.93656 1.39011C8.82708 0.992881 8.56961 0.646367 8.21147 0.414266C7.85334 0.182165 7.41862 0.0800903 6.98723 0.126791H0.0610828L0 0.439826C5.39466 1.67613 8.96316 4.65929 10.4473 8.24151Z" fill="#F68A0A"/>
<path d="M26.4981 0.264893H22.0229L19.228 15.7724H23.6963L26.4981 0.264893Z" fill="#004A89"/>
<path d="M13.1753 15.7577L20.2137 0.276367H15.4774L11.0988 10.8525L10.6307 9.25566C9.21031 6.62901 7.07239 4.40946 4.43872 2.82724L8.44087 15.7605L13.1753 15.7577Z" fill="#004A89"/>
<path d="M39.2633 10.7022C39.2791 8.94047 38.0807 7.59795 35.5066 6.48928C33.9406 5.77377 32.9856 5.29488 32.9974 4.56819C32.9974 3.92628 33.8066 3.23593 35.5598 3.23593C36.7063 3.21174 37.8456 3.4142 38.9046 3.83033L39.3087 4.00641L39.9167 0.646861C38.6307 0.209768 37.2732 -0.00911958 35.9067 0.000291022C31.4896 0.000291022 28.3794 2.10024 28.3498 5.11602C28.3232 7.34547 30.5731 8.58644 32.2702 9.32897C34.0106 10.0864 34.593 10.5718 34.5821 11.2501C34.5703 12.2907 33.1965 12.7631 31.9104 12.7631C30.4583 12.8037 29.0161 12.525 27.6974 11.9488L27.1258 11.701L26.4971 15.177C28.091 15.7327 29.778 16.0114 31.4768 15.9996C36.1728 15.9987 39.2278 13.9239 39.2633 10.7022Z" fill="#004A89"/>
<path d="M44.5799 13.448L50.3057 13.4536C50.4417 13.994 50.8497 15.7771 50.8497 15.7771H54.9996L51.3789 0.281844H47.9296C47.4443 0.222396 46.9517 0.315877 46.5283 0.547796C46.1048 0.779714 45.774 1.13715 45.5871 1.56475L38.9468 15.7771H43.6456C43.6456 15.7771 44.4055 13.8672 44.5799 13.448ZM47.6448 5.93794C47.6222 5.97986 48.0144 5.04074 48.2361 4.45752L48.5387 5.79444C48.5387 5.79444 49.3921 9.49871 49.5715 10.272H45.867C46.2355 9.38132 47.6409 5.93885 47.6409 5.93885L47.6448 5.93794Z" fill="#004A89"/>
</symbol>

<symbol id="mastercard" width="53" height="32" viewBox="0 0 53 32" fill="none" xmlns="http://www.w3.org/2000/svg">
<path fill-rule="evenodd" clip-rule="evenodd" d="M26.6103 27.8515C29.499 30.5248 33.2837 32.006 37.2103 31.9999C41.4094 31.9666 45.4252 30.2664 48.3827 27.2699C51.3403 24.2734 52.9999 20.2234 52.9999 16.0024C52.9999 11.7814 51.3403 7.73136 48.3827 4.73487C45.4252 1.73837 41.4094 0.0382433 37.2103 0.00490554C33.284 -0.00180684 29.4993 1.47867 26.6103 4.15135C24.9669 5.65197 23.6537 7.48142 22.7551 9.52223C21.8565 11.563 21.3923 13.7701 21.3923 16.0019C21.3923 18.2337 21.8565 20.4408 22.7551 22.4816C23.6537 24.5225 24.9669 26.3519 26.6103 27.8525V27.8515Z" fill="#E99F2B"/>
<path fill-rule="evenodd" clip-rule="evenodd" d="M50.9258 24.9127C50.9256 24.8479 50.938 24.7837 50.9626 24.7238C50.9872 24.6638 51.0233 24.6094 51.0689 24.5635C51.1145 24.5177 51.1686 24.4814 51.2282 24.4568C51.2879 24.4321 51.3518 24.4195 51.4162 24.4197C51.4828 24.4166 51.5494 24.4271 51.6118 24.4504C51.6743 24.4737 51.7315 24.5094 51.78 24.5554C51.8284 24.6014 51.8672 24.6568 51.8939 24.7182C51.9206 24.7796 51.9347 24.8457 51.9355 24.9127C51.9378 24.9819 51.926 25.0509 51.9008 25.1152C51.8755 25.1796 51.8373 25.2381 51.7886 25.287C51.7399 25.336 51.6818 25.3744 51.6177 25.3998C51.5536 25.4251 51.4851 25.437 51.4162 25.4347C51.3496 25.4339 51.2838 25.4197 51.2227 25.3928C51.1616 25.366 51.1066 25.327 51.0608 25.2783C51.0151 25.2296 50.9795 25.1722 50.9563 25.1093C50.9331 25.0465 50.9228 24.9797 50.9258 24.9127ZM51.4162 25.3259C51.5242 25.3231 51.6269 25.2786 51.7031 25.2016C51.7793 25.1247 51.823 25.0212 51.8253 24.9127C51.8214 24.8074 51.7762 24.7078 51.6996 24.6358C51.623 24.5638 51.5211 24.5253 51.4162 24.5285C51.3156 24.5308 51.2197 24.572 51.1485 24.6436C51.0773 24.7151 51.0363 24.8115 51.034 24.9127C51.0354 25.017 51.0753 25.117 51.1459 25.1934C51.2165 25.2698 51.3129 25.317 51.4162 25.3259ZM51.3616 25.1612H51.2534V24.6931H51.4431C51.4818 24.6887 51.5208 24.6983 51.5532 24.7201C51.6069 24.7471 51.6069 24.776 51.6069 24.8309C51.6069 24.8857 51.5801 24.9417 51.5255 24.9417L51.6357 25.1612H51.4987L51.4431 24.9686H51.3616V24.8848H51.4689C51.4957 24.8848 51.4957 24.8578 51.4957 24.8309C51.4957 24.8039 51.4957 24.804 51.4689 24.777H51.3587L51.3616 25.1612Z" fill="#E99F2B"/>
<path fill-rule="evenodd" clip-rule="evenodd" d="M31.7193 14.3115C31.6637 13.7347 31.5555 13.1859 31.4453 12.6091H21.7746C21.8905 12.0431 22.0363 11.4838 22.2114 10.9335H30.9827C30.7914 10.3547 30.5726 9.78719 30.3264 9.231H22.8954C23.1674 8.64887 23.4679 8.08138 23.7969 7.52852H29.3972C29.0382 6.94111 28.6367 6.38106 28.1959 5.85296H24.9971C25.4917 5.24536 26.0306 4.67561 26.6094 4.14846C24.3266 2.06717 21.4918 0.696836 18.4491 0.203865C15.4064 -0.289107 12.2868 0.11651 9.46907 1.37141C6.6513 2.62631 4.25657 4.6765 2.57568 7.27313C0.894781 9.86975 0 12.9011 0 15.999C0 19.097 0.894781 22.1283 2.57568 24.7249C4.25657 27.3216 6.6513 29.3718 9.46907 30.6267C12.2868 31.8816 15.4064 32.2871 18.4491 31.7942C21.4918 31.3012 24.3266 29.9309 26.6094 27.8496C27.1802 27.3322 27.7112 26.7721 28.1979 26.174H24.9971C24.5663 25.6289 24.1653 25.0606 23.7959 24.4716H29.3962C29.7487 23.9287 30.0593 23.3596 30.3254 22.7691H22.8944C22.6375 22.2223 22.4091 21.6624 22.2104 21.0916H30.9817C31.165 20.5324 31.3197 19.9642 31.4453 19.3891C31.6863 18.2799 31.8055 17.1474 31.8007 16.012C31.8007 15.4352 31.7739 14.8584 31.7193 14.3095V14.3115Z" fill="#BF0C24"/>
<path fill-rule="evenodd" clip-rule="evenodd" d="M50.9257 19.7212C50.9229 19.6544 50.9335 19.5878 50.9568 19.5252C50.9801 19.4626 51.0157 19.4054 51.0615 19.3569C51.1072 19.3084 51.1622 19.2697 51.2231 19.2429C51.284 19.2162 51.3497 19.202 51.4162 19.2013C51.4848 19.1988 51.5533 19.2105 51.6173 19.2357C51.6813 19.261 51.7394 19.2991 51.7881 19.3479C51.8368 19.3966 51.875 19.4549 51.9004 19.5191C51.9257 19.5834 51.9376 19.6521 51.9354 19.7212C51.9355 19.7898 51.9222 19.8577 51.8961 19.9211C51.8701 19.9845 51.8318 20.0421 51.7836 20.0905C51.7354 20.139 51.6781 20.1775 51.615 20.2037C51.552 20.2298 51.4844 20.2433 51.4162 20.2431C51.2829 20.2374 51.1571 20.1797 51.0656 20.0823C50.974 19.9848 50.9238 19.8552 50.9257 19.7212ZM51.4162 20.1054C51.4687 20.1092 51.5214 20.1021 51.5711 20.0845C51.6207 20.0669 51.6662 20.0393 51.7048 20.0032C51.7433 19.9672 51.7741 19.9235 51.7951 19.875C51.8161 19.8265 51.827 19.7741 51.827 19.7212C51.827 19.6683 51.8161 19.6159 51.7951 19.5674C51.7741 19.5189 51.7433 19.4752 51.7048 19.4392C51.6662 19.4031 51.6207 19.3754 51.5711 19.3579C51.5214 19.3403 51.4687 19.3332 51.4162 19.337C51.3148 19.337 51.2176 19.3775 51.1459 19.4495C51.0742 19.5216 51.034 19.6193 51.034 19.7212C51.034 19.8231 51.0742 19.9208 51.1459 19.9928C51.2176 20.0649 51.3148 20.1054 51.4162 20.1054ZM51.3616 19.9408H51.2533V19.5017H51.5512C51.6048 19.5286 51.6048 19.5855 51.6048 19.6394C51.6009 19.663 51.5915 19.6853 51.5773 19.7046C51.5632 19.7238 51.5447 19.7394 51.5234 19.7501L51.6336 19.9427H51.4966L51.441 19.7781H51.3596V19.6943H51.4142C51.441 19.6943 51.4698 19.6942 51.4698 19.6673C51.4966 19.6673 51.4966 19.6403 51.4966 19.6124C51.4966 19.6053 51.4937 19.5984 51.4887 19.5933C51.4837 19.5883 51.4769 19.5855 51.4698 19.5855C51.4698 19.5565 51.441 19.5855 51.4142 19.5855H51.3596L51.3616 19.9408Z" fill="white"/>
<path fill-rule="evenodd" clip-rule="evenodd" d="M21.2274 20.6254C20.8105 20.7544 20.3786 20.8282 19.9427 20.8449C19.1217 20.8449 18.6312 20.325 18.6312 19.3889C18.6372 19.1885 18.6551 18.9885 18.6849 18.7901L18.7951 18.1595L18.8765 17.6376L19.6141 13.1338H21.2532L21.0616 14.1218H22.101L21.8538 15.7694H20.8154L20.3785 18.4639C20.3598 18.5538 20.3508 18.6454 20.3517 18.7373C20.3517 19.0945 20.5155 19.2362 20.9256 19.2362C21.1 19.2335 21.2738 19.2147 21.4448 19.1803L21.2274 20.6254ZM26.5279 20.5715C25.9588 20.734 25.3702 20.8169 24.7786 20.818C24.3832 20.8665 23.9821 20.8239 23.6055 20.6935C23.229 20.563 22.8869 20.3482 22.6052 20.0652C22.3234 19.7822 22.1095 19.4385 21.9795 19.0601C21.8495 18.6817 21.8069 18.2784 21.8548 17.881C21.8548 15.6007 23.1117 13.9521 24.86 13.9521C25.1731 13.9347 25.4862 13.9852 25.7781 14.1002C26.07 14.2152 26.3339 14.3921 26.5517 14.6187C26.7696 14.8454 26.9364 15.1166 27.0407 15.4138C27.145 15.711 27.1844 16.0273 27.1563 16.3412C27.15 16.8867 27.0858 17.4301 26.9647 17.9619H23.5485C23.5292 18.0334 23.5202 18.1073 23.5217 18.1814C23.5217 18.9498 24.041 19.3341 25.0238 19.3341C25.639 19.3327 26.2461 19.1922 26.7999 18.9229L26.5279 20.5715ZM25.5162 16.6446V16.3143C25.5304 16.2015 25.5191 16.0869 25.4834 15.979C25.4477 15.8712 25.3883 15.7728 25.3097 15.691C25.2311 15.6092 25.1353 15.5462 25.0293 15.5066C24.9233 15.4669 24.8098 15.4518 24.6972 15.462C24.1511 15.462 23.7679 15.8732 23.6051 16.6446H25.5162ZM8.11366 20.7092H6.41798L7.40282 14.474L5.1899 20.7092H4.01545L3.87844 14.502L2.84 20.7092H1.1731L2.51136 12.6069H4.9983L5.05192 17.6056L6.7188 12.6069H9.45096L8.11366 20.7092ZM12.2387 17.7703C12.1304 17.7499 12.0203 17.7408 11.9101 17.7433C10.9272 17.7433 10.4348 18.1276 10.4348 18.7313C10.4258 18.8191 10.4354 18.9078 10.4631 18.9916C10.4908 19.0754 10.5359 19.1524 10.5954 19.2173C10.655 19.2822 10.7276 19.3337 10.8084 19.3682C10.8892 19.4028 10.9764 19.4198 11.0642 19.4179C11.8833 19.4209 12.2109 18.7293 12.2387 17.7723V17.7703ZM13.6058 20.7092H12.1305L12.1573 20.0216C11.9507 20.2998 11.676 20.5196 11.3599 20.6595C11.0438 20.7994 10.6971 20.8547 10.3534 20.82C10.1337 20.804 9.91938 20.7443 9.72297 20.6441C9.52656 20.5438 9.35202 20.4052 9.20955 20.2364C9.06708 20.0675 8.95956 19.8718 8.89328 19.6607C8.82699 19.4495 8.80326 19.2272 8.8235 19.0067C8.82675 18.7182 8.87226 18.4317 8.95854 18.1564C9.23255 17.1395 10.2422 16.5089 11.8009 16.4809C11.9925 16.4809 12.2913 16.4809 12.5653 16.5079C12.6056 16.3651 12.624 16.2171 12.6199 16.0688C12.6199 15.6277 12.2645 15.4899 11.4733 15.4899C10.9907 15.4875 10.5108 15.5623 10.0516 15.7115L9.80638 15.7664L9.69616 15.7933L9.94339 14.3104C10.5853 14.086 11.2585 13.9655 11.9379 13.9531C13.4112 13.9531 14.2054 14.6407 14.2054 15.9041C14.2224 16.336 14.1945 16.7684 14.122 17.1944L13.7398 19.5546L13.6862 19.9677L13.6594 20.298L13.6326 20.5176L13.6058 20.7092ZM34.7779 14.1717C35.3165 14.1903 35.8422 14.3418 36.3088 14.6128L36.6066 12.8544C36.4642 12.7914 36.3184 12.7364 36.1698 12.6897L35.4858 12.4971C34.5967 12.3308 33.6791 12.4168 32.836 12.7456C32.462 12.9921 32.1219 13.2871 31.8244 13.6228L31.606 13.5679L29.8587 14.8044L29.9401 14.1168H28.1362L27.0719 20.7032H28.7924L29.4199 17.1625C29.4199 17.1625 29.6671 16.6635 29.7753 16.5029C29.8812 16.3522 30.0267 16.234 30.1955 16.1614C30.3642 16.0888 30.5497 16.0647 30.7313 16.0917H30.8683C30.8113 16.5097 30.7841 16.9312 30.7869 17.3531C30.7869 19.4957 31.9882 20.8459 33.8457 20.8459C34.3547 20.8427 34.8609 20.7689 35.3498 20.6264L35.6476 18.7592C35.2089 19.025 34.7109 19.176 34.1991 19.1983C33.1895 19.1983 32.5888 18.4299 32.5888 17.2224C32.5918 15.4361 33.4933 14.1737 34.7779 14.1737V14.1717ZM49.2865 12.6069L48.9043 14.9131C48.7522 14.6309 48.5271 14.3952 48.2527 14.2309C47.9784 14.0667 47.6649 13.98 47.3456 13.98C46.8653 13.9946 46.3985 14.1437 45.9979 14.4104C45.5973 14.6772 45.2788 15.051 45.0781 15.4899V15.463L43.986 14.8054L44.0962 14.1178H42.2655L41.2271 20.7102H42.9208L43.4946 17.1675C43.4946 17.1675 43.9334 16.6685 44.0406 16.5079C44.1323 16.3894 44.2478 16.2916 44.3795 16.2207C44.5111 16.1499 44.6561 16.1077 44.8051 16.0967C44.5993 16.7254 44.4987 17.384 44.5072 18.0457C44.5072 19.6933 45.3531 20.7921 46.61 20.7921C46.9135 20.7988 47.2145 20.7354 47.4899 20.6068C47.7653 20.4783 48.0077 20.288 48.1984 20.0506L48.115 20.7102H49.7273L51.0388 12.6079L49.2865 12.6069ZM47.1818 19.1424C46.608 19.1424 46.3092 18.7033 46.3092 17.8521C46.3092 16.5607 46.8552 15.6277 47.6474 15.6277C48.2431 15.6277 48.5489 16.0957 48.5489 16.918C48.5479 18.2383 48.0018 19.1454 47.1808 19.1454L47.1818 19.1424ZM39.2872 17.7703C39.1788 17.7499 39.0687 17.7408 38.9585 17.7433C37.9737 17.7433 37.4833 18.1276 37.4833 18.7313C37.4741 18.819 37.4836 18.9076 37.5111 18.9913C37.5386 19.075 37.5836 19.1519 37.6429 19.2169C37.7022 19.2818 37.7746 19.3333 37.8553 19.3679C37.936 19.4026 38.023 19.4196 38.1107 19.4179C38.9317 19.4209 39.2594 18.7293 39.2872 17.7723V17.7703ZM40.6522 20.7092H39.1501L39.2077 20.0266C39.0015 20.3047 38.7271 20.5243 38.4113 20.6642C38.0956 20.8041 37.7492 20.8595 37.4058 20.825C37.1814 20.8157 36.9612 20.7608 36.7584 20.6636C36.5557 20.5664 36.3746 20.429 36.2262 20.2595C36.0777 20.0901 35.965 19.8921 35.8947 19.6777C35.8245 19.4632 35.7981 19.2366 35.8174 19.0117C35.8174 17.4469 36.9918 16.4859 38.8494 16.4859C39.0955 16.4823 39.3417 16.4913 39.587 16.5129C39.6346 16.371 39.6626 16.2233 39.6704 16.0738C39.6704 15.6327 39.3149 15.4969 38.4959 15.4969C38.0136 15.496 37.534 15.5701 37.0743 15.7165L36.8558 15.7714L36.7456 15.7983L36.9908 14.3154C37.6328 14.0914 38.3059 13.9708 38.9854 13.9581C40.4606 13.9581 41.2251 14.6457 41.2251 15.9091C41.2573 16.3409 41.2299 16.7752 41.1437 17.1994L40.7883 19.5616L40.7346 19.9727L40.679 20.303L40.6522 20.5226V20.7152V20.7092ZM17.1838 15.5199C17.6138 15.5222 18.0431 15.5586 18.4674 15.6287L18.7126 14.0908C18.2222 14.037 17.566 13.9531 17.1828 13.9531C15.2707 13.9531 14.6412 14.998 14.6412 16.2045C14.6348 16.605 14.756 16.997 14.9871 17.3233C15.2183 17.6496 15.5473 17.8929 15.9259 18.0178C16.6099 18.3481 16.7201 18.402 16.7201 18.7054C16.7201 19.1165 16.3667 19.363 15.7105 19.363C15.1791 19.3636 14.6516 19.271 14.1518 19.0895L13.9602 20.5994L13.987 20.6264L14.3156 20.6813C14.4604 20.7167 14.6068 20.7447 14.7544 20.7651C15.1634 20.792 15.5189 20.819 15.7373 20.819C17.6494 20.819 18.4426 20.0775 18.4426 18.6235C18.4547 18.2187 18.336 17.8209 18.1045 17.4896C17.8729 17.1583 17.5408 16.9112 17.158 16.7853C16.4203 16.455 16.3369 16.4011 16.3369 16.0977C16.3369 15.7943 16.6645 15.5209 17.1838 15.5209V15.5199Z" fill="#082C5C"/>
<path fill-rule="evenodd" clip-rule="evenodd" d="M37.0783 12.3335L36.7804 14.0919C36.3141 13.8214 35.7887 13.6706 35.2506 13.6528C33.9659 13.6528 33.0664 14.9142 33.0664 16.7005C33.0664 17.937 33.6621 18.6784 34.6787 18.6784C35.1856 18.653 35.6801 18.5124 36.1252 18.2673L35.8274 20.1055C35.34 20.2555 34.8348 20.339 34.3253 20.3539C32.4678 20.3539 31.3181 19.0068 31.3181 16.8382C31.3181 13.9532 32.9066 11.9214 35.1702 11.9214C35.4373 11.9167 35.704 11.9448 35.9644 12.0052L36.6484 12.1699C36.8688 12.2517 36.9224 12.2787 37.0872 12.3325L37.0783 12.3335ZM31.5594 13.5431H31.3956C30.8218 13.5431 30.4941 13.8185 29.9739 14.6148L30.1377 13.5979H28.579L27.5148 20.1903H29.2353C29.8647 16.1527 30.0295 15.4661 30.8476 15.4661H30.9578C31.0835 14.8056 31.3038 14.1669 31.612 13.57L31.5594 13.5431ZM21.6683 20.1055C21.2752 20.2519 20.8594 20.3269 20.4402 20.327C20.2491 20.3448 20.0565 20.3186 19.8769 20.2504C19.6974 20.1823 19.5356 20.074 19.4039 19.9337C19.2722 19.7934 19.1739 19.6248 19.1166 19.4407C19.0593 19.2566 19.0444 19.0618 19.0731 18.871C19.0791 18.6778 19.0974 18.4851 19.1277 18.2942L19.2379 17.6346L19.3213 17.1147L20.057 12.609H21.7526L21.561 13.5969H22.4337L22.2153 15.2176H21.3406L20.877 17.9639C20.856 18.0541 20.847 18.1467 20.8502 18.2393C20.8502 18.5677 21.014 18.7054 21.424 18.7054C21.5807 18.7194 21.7386 18.7007 21.8877 18.6505L21.6693 20.1044L21.6683 20.1055ZM15.0851 15.6856C15.08 16.0888 15.2011 16.4834 15.4312 16.8136C15.6614 17.1438 15.9891 17.393 16.3678 17.5258C17.0786 17.8541 17.1888 17.9649 17.1888 18.2383C17.1888 18.6515 16.891 18.8441 16.204 18.8441C15.6844 18.84 15.1685 18.7562 14.6741 18.5956L14.4289 20.1055L14.5103 20.1344L14.8081 20.1893C14.9597 20.2276 15.1155 20.2457 15.2718 20.2432C15.5797 20.2853 15.8903 20.304 16.201 20.2991C18.0049 20.2991 18.8527 19.6115 18.8527 18.1036C18.8787 17.7071 18.7752 17.3128 18.5581 16.9807C18.3409 16.6486 18.0219 16.3967 17.6495 16.2634C16.9118 15.9331 16.8304 15.8523 16.8304 15.5489C16.8304 15.1917 17.1282 15.027 17.6782 15.027C18.0889 15.0304 18.499 15.0584 18.9063 15.1108L19.1536 13.6009C18.6565 13.5161 18.1536 13.47 17.6495 13.4632C15.7334 13.4622 15.0523 14.4771 15.0811 15.6866L15.0851 15.6856ZM50.1652 20.1893H48.5529L48.6343 19.5566C48.4389 19.7854 48.1956 19.9681 47.9219 20.0916C47.6482 20.2151 47.3508 20.2764 47.0508 20.2712C45.7939 20.2712 44.9729 19.2013 44.9729 17.5538C44.9729 15.3583 46.2566 13.4892 47.7597 13.4892C48.0867 13.4908 48.408 13.5746 48.6946 13.7328C48.9812 13.8911 49.2239 14.1188 49.4007 14.3953L49.783 12.087H51.4737L50.1622 20.1893H50.1652ZM47.6505 18.6515C48.4447 18.6515 48.9887 17.7174 48.9887 16.4271C48.9887 15.5748 48.6909 15.1297 48.0873 15.1297C47.3228 15.1297 46.749 16.0359 46.749 17.3252C46.7464 18.2094 47.0459 18.6518 47.6475 18.6525L47.6505 18.6515ZM26.9141 20.0486C26.3406 20.2355 25.7409 20.3285 25.1381 20.324C23.224 20.324 22.2411 19.3071 22.2411 17.3582C22.2411 15.1048 23.498 13.4293 25.2195 13.4293C25.5342 13.4098 25.8494 13.4587 26.1437 13.5727C26.4379 13.6866 26.7044 13.8629 26.9248 14.0895C27.1452 14.3162 27.3145 14.588 27.4211 14.8863C27.5277 15.1846 27.5691 15.5025 27.5426 15.8183C27.5379 16.3745 27.4645 16.9279 27.3242 17.4659H23.9348C23.9145 17.528 23.9054 17.5932 23.908 17.6585C23.908 18.4289 24.4272 18.8132 25.4101 18.8132C26.0269 18.8244 26.6369 18.6825 27.1862 18.4L26.9141 20.0486ZM25.9561 16.1217V15.7944C25.9703 15.6817 25.9591 15.5672 25.9233 15.4594C25.8876 15.3516 25.8282 15.2533 25.7496 15.1716C25.671 15.09 25.5751 15.0272 25.4691 14.9878C25.3631 14.9484 25.2496 14.9335 25.137 14.9442C24.591 14.9442 24.2078 15.3553 24.045 16.1247L25.9561 16.1217ZM8.55058 20.1853H6.85689L7.83974 13.9502L5.62685 20.1853H4.45237L4.31536 14.0071L3.27789 20.1853H1.68945L3.02772 12.0831H5.48784L5.56925 17.1087L7.20834 12.0831H9.88887L8.55058 20.1853ZM12.7858 17.2464C12.622 17.2464 12.5406 17.2194 12.4036 17.2194C11.4475 17.2194 10.9551 17.5767 10.9551 18.2344C10.9432 18.3186 10.9499 18.4044 10.9748 18.4857C10.9996 18.567 11.042 18.6418 11.0988 18.7048C11.1557 18.7677 11.2257 18.8174 11.3038 18.8501C11.3819 18.8828 11.4662 18.8978 11.5508 18.894C12.2666 18.899 12.755 18.2383 12.7858 17.2504V17.2464ZM14.0456 20.1853H12.624L12.6508 19.4977C12.4365 19.7672 12.1605 19.9805 11.8464 20.1196C11.5322 20.2586 11.1894 20.3191 10.8469 20.2961C10.6242 20.2932 10.4046 20.2432 10.2024 20.1495C10.0001 20.0557 9.81977 19.9203 9.67297 19.752C9.52618 19.5836 9.41625 19.3861 9.35031 19.1723C9.28437 18.9585 9.26387 18.7331 9.2902 18.5108C9.2902 16.8901 10.3823 15.956 12.2954 15.956C12.487 15.956 12.7342 15.983 13.0062 16.0109C13.0443 15.8773 13.0624 15.7387 13.0598 15.5998C13.0598 15.1607 12.762 15.001 11.9678 15.001C11.4895 14.9947 11.0124 15.05 10.5481 15.1657L10.3009 15.2475L10.1371 15.2765L10.3843 13.7935C11.0465 13.579 11.7376 13.4676 12.4334 13.4632C13.9087 13.4632 14.7009 14.1209 14.7009 15.3853C14.6906 15.8277 14.6448 16.2685 14.5639 16.7035L14.1817 19.0387L14.1271 19.4499L14.1002 19.7802L14.0735 20.0267L14.0466 20.1913L14.0456 20.1853ZM39.8372 17.2464C39.6456 17.2464 39.5632 17.2194 39.455 17.2194C38.4702 17.2194 37.9778 17.5767 37.9778 18.2344C37.9688 18.3209 37.9787 18.4083 38.0068 18.4906C38.0348 18.5729 38.0804 18.6481 38.1403 18.7108C38.2002 18.7736 38.273 18.8225 38.3537 18.8542C38.4343 18.8858 38.5208 18.8994 38.6072 18.894C39.2912 18.894 39.8084 18.2344 39.8372 17.2464ZM41.0941 20.1853H39.6724L39.6992 19.4977C39.4848 19.7671 39.2088 19.9803 38.8947 20.1193C38.5806 20.2583 38.2378 20.319 37.8954 20.2961C37.6727 20.2932 37.4531 20.2432 37.2508 20.1495C37.0486 20.0557 36.8682 19.9203 36.7214 19.752C36.5746 19.5836 36.4647 19.3861 36.3988 19.1723C36.3328 18.9585 36.3123 18.7331 36.3387 18.5108C36.3387 16.8901 37.4307 15.956 39.3438 15.956C39.5354 15.956 39.7807 15.983 40.0279 16.0109C40.0713 15.8776 40.0986 15.7396 40.1093 15.5998C40.1093 15.1607 39.8114 15.001 39.0172 15.001C38.5301 14.9948 38.0441 15.0501 37.5707 15.1657L37.3503 15.2475L37.1865 15.2765L37.4337 13.7935C38.096 13.579 38.787 13.4676 39.4828 13.4632C40.9581 13.4632 41.7226 14.1209 41.7226 15.3853C41.7265 15.8285 41.6805 16.2707 41.5855 16.7035L41.2301 19.0387L41.1765 19.4499L41.1219 19.7802L41.0951 20.0267V20.1913L41.0941 20.1853ZM45.6828 13.539H45.517C44.9451 13.539 44.6175 13.8145 44.0973 14.6109L44.2611 13.5939H42.7024L41.664 20.1863H43.3596C43.9871 16.1487 44.1539 15.4621 44.9719 15.4621H45.0801C45.2056 14.8012 45.4267 14.1624 45.7364 13.566L45.6828 13.539Z" fill="white"/>
</symbol>

<symbol id="logo_small" viewBox="0 0 24 24" width="40" height="40" xmlns="http://www.w3.org/2000/svg" focusable="false" aria-hidden="true" >
<path d="M21.38 17.63a.38.38 0 0 0-.38-.38H3A.38.38 0 0 0 3 18h18c.2 0 .38-.17.38-.38zm-4.9-1.94.35.43h-.72l.36-.43zm-4.51-1.8 1.85 2.23h-3.7l1.85-2.22zM7.1 16.13l.39-.46.39.46H7.1zm-.88-1.98.78.94-.87 1.05H4.6l1.64-1.99zm1.43-1.72.76.96-.92 1.11-.78-.93.94-1.14zm1.53-1.85.79.94L8.9 12.8l-.76-.96 1.04-1.26zm2.32-.89-1.04 1.25-.8-.95 1.05-1.25.79.95zm1.28-1.54-.8.96-.79-.96.8-.96.8.96zm1.5 1.8-.8.96-1-1.22.8-.96 1 1.22zm1.56 1.9-.78.98-1.1-1.33.8-.96 1.08 1.3zm-2.36.24 1.1 1.33-1 1.26-1.13-1.36 1.03-1.23zm-2.53-.57 1.03-1.24L13 11.49l-1.03 1.24-1.01-1.22zm-.58 3.12-.99-1.24 1.08-1.3 1.01 1.22-1.1 1.32zm-1.52 1.5L8 15.07l.91-1.1 1 1.24-.76.9h-.28zm5.94 0-.72-.87 1-1.25.9 1.1-.84 1.02h-.34zm2.48-2.57-.8.96-.92-1.11.78-.99.94 1.14zm2.13 2.56h-1.6l-.85-1.01.8-.97 1.64 1.99zm-12.92.75H21l-2.75-3.31-.48-.6-.95-1.13-.49-.6-1.07-1.28-.48-.6-1.01-1.21-.1-.13L12 6l-1.66 2.01-.1.13-2.57 3.1-.49.58-.95 1.15-.48.59L3 16.87h3.49z"></path>
</symbol>

<symbol id="separator" viewBox="0 0 16 16" width="16" height="16" focusable="false" aria-hidden="true" >
<path d="M11.5 7.88 7.12 3.5l-.87.88 3.5 3.5-3.5 3.5.88.87z"></path>
</symbol>

<symbol id="indicator" viewBox="0 0 35 20" width="25" height="20" focusable="false" aria-hidden="true" xmlns="http://www.w3.org/2000/svg">
<path d="m11.8 3-1 1 5.4 5.5H1v1.4h15.2l-5.4 5.5 1 1 7.2-7.2z"></path>
</symbol>

</svg>


